<svg width="512" height="512" viewBox="0 0 512 512" fill="none" xmlns="http://www.w3.org/2000/svg">
<rect width="512" height="512" rx="64" fill="#071422"/>
<path d="M227.693 241.972L227.693 241.972C235.636 249.915 235.636 262.748 227.693 270.691L228.4 271.398L227.693 270.691L99.7128 398.691C91.7701 406.634 78.8966 406.634 70.9552 398.691C63.0149 390.748 63.0149 377.915 70.9552 369.972L183.841 257.038L184.547 256.331L183.841 255.624L70.9552 142.711C63.0149 134.768 63.0149 121.895 70.9552 113.952C78.8967 106.016 91.7704 106.016 99.7132 113.952L227.693 241.972ZM426.667 363.998C437.914 363.998 447 373.084 447 384.331C447 395.579 437.914 404.665 426.667 404.665H234.667C223.419 404.665 214.333 395.579 214.333 384.331C214.333 373.084 223.419 363.998 234.667 363.998H426.667Z" fill="#E7EDF4" stroke="#E7EDF4" stroke-width="2"/>
</svg>
